<svg width="32" height="32" viewBox="0 0 32 32" fill="none" xmlns="http://www.w3.org/2000/svg">
<path d="M15.75 23.3C15.65 23.3 15.55 23.3 15.45 23.3C15.15 23.3 14.85 23.1 14.65 22.9L2.45 10.7C1.85 10.1 1.85 9.1 2.45 8.5C2.75 8.2 3.15001 8 3.55001 8C3.95001 8 4.35 8.1 4.65 8.5L15.85 19.7L26.95 8.6C27.25 8.3 27.65 8.2 28.05 8.2C28.45 8.2 28.85 8.3 29.15 8.6C29.75 9.2 29.75 10.2 29.15 10.8L16.95 23C16.65 23.2 16.25 23.3 15.75 23.3Z" fill="currentColor" stroke="currentColor" stroke-width="2" stroke-miterlimit="10" stroke-linecap="round" stroke-linejoin="round"/>
</svg>
