<svg width="32" height="32" viewBox="0 0 32 32" fill="none" xmlns="http://www.w3.org/2000/svg">
<path d="M28.1417 3.5625C28.8917 4.3125 28.8917 5.4375 28.1417 6.1875L18.6417 15.9375L28.5167 25.6875C29.2667 26.4375 29.2667 27.5625 28.5167 28.3125C27.7667 29.0625 26.6417 29.0625 25.8917 28.3125L16.0167 18.5625L6.26669 28.4375C5.51669 29.1875 4.39169 29.1875 3.64169 28.4375C2.89169 27.6875 2.89169 26.5625 3.64169 25.8125L13.3917 15.9375L3.51669 6.3125C2.89169 5.5625 2.76669 4.4375 3.51669 3.6875C4.26669 2.9375 5.39169 2.9375 6.14169 3.6875L15.8917 13.3125L25.5167 3.5625C26.2667 2.8125 27.3917 2.8125 28.1417 3.5625Z" fill="currentColor" stroke="currentColor" stroke-width="2" stroke-miterlimit="10" stroke-linecap="round" stroke-linejoin="round"/>
</svg>
