<svg width="32" height="32" viewBox="0 0 32 32" fill="none" xmlns="http://www.w3.org/2000/svg">
<g clip-path="url(#clip0_9214_26126)">
<path d="M4.48932 27.5107L15.8506 4.48932L27.2119 27.5107H4.48932Z" fill="currentColor" stroke="currentColor" stroke-width="5" stroke-linecap="round" stroke-linejoin="round"/>
<path d="M16.8364 11.0811C16.8364 10.5367 16.3951 10.0953 15.8506 10.0953C15.3062 10.0953 14.8649 10.5367 14.8649 11.0811V19.2959C14.8649 19.8403 15.3062 20.2817 15.8506 20.2817C16.3951 20.2817 16.8364 19.8403 16.8364 19.2959V11.0811Z" fill="none" stroke="none" stroke-width="1.13" stroke-linecap="round" stroke-linejoin="round"/>
<path d="M16.8364 24.3741C16.8364 23.8297 16.3951 23.3883 15.8506 23.3883C15.3062 23.3883 14.8649 23.8297 14.8649 24.3741C14.8649 24.9185 15.3062 25.3599 15.8506 25.3599C16.3951 25.3599 16.8364 24.9185 16.8364 24.3741Z" fill="none" stroke="none" stroke-width="1.32" stroke-linecap="round" stroke-linejoin="round"/>
</g>
<defs>
<clipPath id="clip0_9214_26126">
<rect width="27.7013" height="28" fill="none" transform="translate(2 2)"/>
</clipPath>
</defs>
</svg>
