<svg width="32" height="32" viewBox="0 0 32 32" fill="none" xmlns="http://www.w3.org/2000/svg">
<g clip-path="url(#clip0_9214_26120)">
<path d="M27.5 11.4L25.3 13.8C24.6 12.6 23.5 10.9 21.7 9.4C20.4 8.2 19.1 7.5 18 7L20.1 4.7C22 2.7 25.1 2.5 27.2 4.4C29.3 6.2 29.4 9.4 27.5 11.4Z" fill="currentColor" stroke="currentColor" stroke-width="2" stroke-miterlimit="10" stroke-linejoin="round"/>
<path d="M25.3 13.8L14.5 25.7C14.4 25.8 14.3 25.9 14.1 26.1C13.9 26.3 13.3 26.8 12.2 27.5C12 27.6 11.1 28.1 10.2 28.5C7.69999 29.5 5.49999 29.7 4.09999 29.8C3.99999 28.5 3.89999 26.2 4.69999 23.7C4.99999 22.8 5.49999 21.1 6.79999 19.5C6.89999 19.1 6.99999 19 7.09999 18.9L18 7C19.1 7.5 20.4 8.3 21.7 9.4C23.5 11 24.6 12.6 25.3 13.8Z" stroke="currentColor" stroke-width="2" stroke-miterlimit="10" stroke-linejoin="round"/>
</g>
<defs>
<clipPath id="clip0_9214_26120">
<rect width="26.8" height="28.7" fill="none" transform="translate(3 2)"/>
</clipPath>
</defs>
</svg>
