<svg width="32" height="32" viewBox="0 0 32 32" fill="none" xmlns="http://www.w3.org/2000/svg">
<path d="M15.704 30C13.9856 28.1805 12.6715 26.4621 11.7617 25.2491C11.7617 25.2491 7.51623 19.3863 6.30324 14.0289C5.99999 12.8159 6 11.704 6 11.704C6 11.704 6.00001 10.6931 6.20218 9.78339C7.11193 5.33574 11.0542 2 15.704 2C20.3538 2 24.296 5.33574 25.2058 9.78339C25.4079 10.7942 25.408 11.704 25.408 11.704C25.408 11.704 25.4079 12.8159 25.1047 14.0289C23.7906 19.3863 19.6462 25.2491 19.6462 25.2491C18.7365 26.4621 17.4224 28.1805 15.704 30Z" fill="currentColor" stroke="currentColor" stroke-width="2" stroke-miterlimit="10" stroke-linecap="round" stroke-linejoin="round"/>
<path d="M15.704 18.0722C19.2211 18.0722 22.0722 15.2211 22.0722 11.704C22.0722 8.18694 19.2211 5.33578 15.704 5.33578C12.1869 5.33578 9.33573 8.18694 9.33573 11.704C9.33573 15.2211 12.1869 18.0722 15.704 18.0722Z" fill="white"/>
</svg>
