<svg width="32" height="32" viewBox="0 0 32 32" fill="none" xmlns="http://www.w3.org/2000/svg">
<path d="M28.1225 27.3758L23.6313 21.6313C25.4069 19.8558 26.5558 17.558 26.8691 14.9468C27.7047 8.68013 23.2136 2.93565 16.9468 2.10009C10.6801 1.26452 4.93565 5.75567 4.10009 12.0224C3.26452 18.2891 7.75567 24.0336 14.0224 24.8691C16.5291 25.1825 19.0357 24.6602 21.0202 23.5113L25.5113 29.3603C26.0336 30.0914 27.078 30.1958 27.7047 29.6736C28.5403 29.0469 28.6447 28.0025 28.1225 27.3758ZM6.71121 12.3357C7.33789 7.42679 11.7246 3.9801 16.6335 4.60677C21.5424 5.23344 24.9891 9.62014 24.3624 14.5291C23.7358 19.438 19.3491 22.8847 14.4402 22.258C9.53124 21.6313 6.08454 17.2446 6.71121 12.3357Z" fill="currentColor" stroke="currentColor" stroke-width="2" stroke-miterlimit="10" stroke-linecap="round" stroke-linejoin="round"/>
</svg>
