<svg width="32" height="32" viewBox="0 0 32 32" fill="none" xmlns="http://www.w3.org/2000/svg">
<path d="M0.999864 15.8699C0.999864 15.7763 0.999864 15.6827 0.999864 15.5891C0.999864 15.3083 1.18707 15.0275 1.37427 14.8403L12.7933 3.42122C13.3549 2.85962 14.2909 2.85962 14.8525 3.42122C15.1333 3.70201 15.3205 4.07641 15.3205 4.45081C15.3205 4.8252 15.2269 5.1996 14.8525 5.48039L4.36943 15.9635L14.9461 26.353C15.2269 26.6338 15.3205 27.0082 15.3205 27.3826C15.3205 27.757 15.2269 28.1314 14.9461 28.4122C14.3845 28.9737 13.4485 28.9737 12.887 28.4122L1.46786 16.9931C1.18706 16.7123 0.999864 16.2443 0.999864 15.8699Z" fill="currentColor" stroke="currentColor" stroke-miterlimit="10" stroke-linecap="round" stroke-linejoin="round"/>
<line x1="3" y1="15.8541" x2="30" y2="15.8541" stroke="currentColor" stroke-width="4" stroke-linecap="round"/>
</svg>
