<svg width="32" height="32" viewBox="0 0 32 32" fill="none" xmlns="http://www.w3.org/2000/svg">
<path d="M29.6 6.52014C29.6 6.82014 29.5 7.22014 29.2 7.52014L12.8 26.4201C12.5 26.7201 12.1 26.9201 11.6 26.9201C11.2 26.9201 10.9 26.8201 10.6 26.5201L3.5 20.3201C3.2 20.0201 3 19.6201 3 19.2201C3 18.8201 3.09999 18.5201 3.39999 18.2201C3.99999 17.6201 4.9 17.5201 5.5 18.1201L11.5 23.3201L26.9 5.52014C27.5 4.92014 28.4 4.82014 29 5.32014C29.4 5.72014 29.6 6.12014 29.6 6.52014Z" fill="currentColor" stroke="currentColor" stroke-width="2" stroke-miterlimit="10" stroke-linecap="round" stroke-linejoin="round"/>
</svg>
