<svg width="294" height="37" viewBox="0 0 294 37" fill="none" xmlns="http://www.w3.org/2000/svg">
<path d="M10.5795 36L0.590909 1.09091H8.65341L14.4318 25.3466H14.7216L21.0966 1.09091H28L34.358 25.3977H34.6648L40.4432 1.09091H48.5057L38.517 36H31.3239L24.6761 13.1761H24.4034L17.7727 36H10.5795Z" fill="#F2C864"/>
<path d="M70.946 1.09091V36H63.5653V1.09091H70.946Z" fill="#FFA262"/>
<path d="M107.065 11.1307C106.929 9.75568 106.344 8.6875 105.31 7.92614C104.276 7.16477 102.872 6.78409 101.099 6.78409C99.8949 6.78409 98.8778 6.95454 98.0483 7.29545C97.2188 7.625 96.5824 8.08523 96.1392 8.67614C95.7074 9.26705 95.4915 9.9375 95.4915 10.6875C95.4688 11.3125 95.5994 11.858 95.8835 12.3239C96.179 12.7898 96.5824 13.1932 97.0938 13.5341C97.6051 13.8636 98.196 14.1534 98.8665 14.4034C99.5369 14.642 100.253 14.8466 101.014 15.017L104.151 15.767C105.673 16.108 107.071 16.5625 108.344 17.1307C109.616 17.6989 110.719 18.3977 111.651 19.2273C112.582 20.0568 113.304 21.0341 113.815 22.1591C114.338 23.2841 114.605 24.5739 114.616 26.0284C114.605 28.1648 114.06 30.017 112.98 31.5852C111.912 33.142 110.366 34.3523 108.344 35.2159C106.332 36.0682 103.906 36.4943 101.065 36.4943C98.2472 36.4943 95.7926 36.0625 93.7017 35.1989C91.6222 34.3352 89.9972 33.0568 88.8267 31.3636C87.6676 29.6591 87.0597 27.5511 87.0028 25.0398H94.1449C94.2244 26.2102 94.5597 27.1875 95.1506 27.9716C95.7528 28.7443 96.554 29.3295 97.554 29.7273C98.5653 30.1136 99.7074 30.3068 100.98 30.3068C102.23 30.3068 103.315 30.125 104.236 29.7614C105.168 29.3977 105.889 28.892 106.401 28.2443C106.912 27.5966 107.168 26.8523 107.168 26.0114C107.168 25.2273 106.935 24.5682 106.469 24.0341C106.014 23.5 105.344 23.0455 104.457 22.6705C103.582 22.2955 102.509 21.9545 101.236 21.6477L97.4347 20.6932C94.4915 19.9773 92.1676 18.858 90.4631 17.3352C88.7585 15.8125 87.9119 13.7614 87.9233 11.1818C87.9119 9.06818 88.4744 7.22159 89.6108 5.64205C90.7585 4.0625 92.3324 2.82955 94.3324 1.94318C96.3324 1.05682 98.6051 0.613635 101.151 0.613635C103.741 0.613635 106.003 1.05682 107.935 1.94318C109.878 2.82955 111.389 4.0625 112.469 5.64205C113.548 7.22159 114.105 9.05114 114.139 11.1307H107.065Z" fill="#A6CC80"/>
<path d="M130.69 36V1.09091H154.213V7.17614H138.071V15.4943H153.003V21.5795H138.071V29.9148H154.281V36H130.69Z" fill="#5B84C4"/>
<path d="M200.474 12H196.247C195.997 10.7841 195.56 9.71591 194.935 8.79545C194.321 7.875 193.571 7.10227 192.685 6.47727C191.81 5.84091 190.838 5.36364 189.77 5.04545C188.702 4.72727 187.588 4.56818 186.429 4.56818C184.315 4.56818 182.401 5.10227 180.685 6.17045C178.98 7.23864 177.622 8.8125 176.611 10.892C175.611 12.9716 175.111 15.5227 175.111 18.5455C175.111 21.5682 175.611 24.1193 176.611 26.1989C177.622 28.2784 178.98 29.8523 180.685 30.9205C182.401 31.9886 184.315 32.5227 186.429 32.5227C187.588 32.5227 188.702 32.3636 189.77 32.0455C190.838 31.7273 191.81 31.2557 192.685 30.6307C193.571 29.9943 194.321 29.2159 194.935 28.2955C195.56 27.3636 195.997 26.2955 196.247 25.0909H200.474C200.156 26.875 199.577 28.4716 198.736 29.8807C197.895 31.2898 196.849 32.4886 195.599 33.4773C194.349 34.4545 192.946 35.1989 191.389 35.7102C189.844 36.2216 188.19 36.4773 186.429 36.4773C183.452 36.4773 180.804 35.75 178.486 34.2955C176.168 32.8409 174.344 30.7727 173.014 28.0909C171.685 25.4091 171.02 22.2273 171.02 18.5455C171.02 14.8636 171.685 11.6818 173.014 9C174.344 6.31818 176.168 4.25 178.486 2.79545C180.804 1.34091 183.452 0.613635 186.429 0.613635C188.19 0.613635 189.844 0.869317 191.389 1.38068C192.946 1.89205 194.349 2.64205 195.599 3.63068C196.849 4.60795 197.895 5.80114 198.736 7.21023C199.577 8.60795 200.156 10.2045 200.474 12ZM206.76 36V9.81818H210.783V36H206.76ZM208.805 5.45455C208.021 5.45455 207.345 5.1875 206.777 4.65341C206.22 4.11932 205.942 3.47727 205.942 2.72727C205.942 1.97727 206.22 1.33523 206.777 0.801135C207.345 0.267045 208.021 0 208.805 0C209.589 0 210.26 0.267045 210.817 0.801135C211.385 1.33523 211.669 1.97727 211.669 2.72727C211.669 3.47727 211.385 4.11932 210.817 4.65341C210.26 5.1875 209.589 5.45455 208.805 5.45455ZM229.537 9.81818V13.2273H215.969V9.81818H229.537ZM219.923 3.54545H223.946V28.5C223.946 29.6364 224.111 30.4886 224.44 31.0568C224.781 31.6136 225.213 31.9886 225.736 32.1818C226.27 32.3636 226.832 32.4545 227.423 32.4545C227.866 32.4545 228.23 32.4318 228.514 32.3864C228.798 32.3295 229.026 32.2841 229.196 32.25L230.014 35.8636C229.741 35.9659 229.361 36.0682 228.872 36.1705C228.384 36.2841 227.764 36.3409 227.014 36.3409C225.878 36.3409 224.764 36.0966 223.673 35.608C222.594 35.1193 221.696 34.375 220.98 33.375C220.276 32.375 219.923 31.1136 219.923 29.5909V3.54545ZM235.588 36V9.81818H239.611V36H235.588ZM237.634 5.45455C236.849 5.45455 236.173 5.1875 235.605 4.65341C235.048 4.11932 234.77 3.47727 234.77 2.72727C234.77 1.97727 235.048 1.33523 235.605 0.801135C236.173 0.267045 236.849 0 237.634 0C238.418 0 239.088 0.267045 239.645 0.801135C240.213 1.33523 240.497 1.97727 240.497 2.72727C240.497 3.47727 240.213 4.11932 239.645 4.65341C239.088 5.1875 238.418 5.45455 237.634 5.45455ZM257.956 36.5455C255.433 36.5455 253.257 35.9886 251.428 34.875C249.609 33.75 248.206 32.1818 247.217 30.1705C246.24 28.1477 245.751 25.7955 245.751 23.1136C245.751 20.4318 246.24 18.0682 247.217 16.0227C248.206 13.9659 249.581 12.3636 251.342 11.2159C253.115 10.0568 255.183 9.47727 257.547 9.47727C258.911 9.47727 260.257 9.70455 261.587 10.1591C262.916 10.6136 264.126 11.3523 265.217 12.375C266.308 13.3864 267.178 14.7273 267.825 16.3977C268.473 18.0682 268.797 20.125 268.797 22.5682V24.2727H248.615V20.7955H264.706C264.706 19.3182 264.411 18 263.82 16.8409C263.24 15.6818 262.411 14.767 261.331 14.0966C260.263 13.4261 259.001 13.0909 257.547 13.0909C255.945 13.0909 254.558 13.4886 253.388 14.2841C252.229 15.0682 251.337 16.0909 250.712 17.3523C250.087 18.6136 249.774 19.9659 249.774 21.4091V23.7273C249.774 25.7045 250.115 27.3807 250.797 28.7557C251.49 30.1193 252.45 31.1591 253.678 31.875C254.905 32.5795 256.331 32.9318 257.956 32.9318C259.013 32.9318 259.967 32.7841 260.82 32.4886C261.683 32.1818 262.428 31.7273 263.053 31.125C263.678 30.5114 264.161 29.75 264.501 28.8409L268.388 29.9318C267.979 31.25 267.291 32.4091 266.325 33.4091C265.359 34.3977 264.166 35.1705 262.746 35.7273C261.325 36.2727 259.729 36.5455 257.956 36.5455ZM293.462 15.6818L289.848 16.7045C289.621 16.1023 289.286 15.517 288.842 14.9489C288.411 14.3693 287.82 13.892 287.07 13.517C286.32 13.142 285.359 12.9545 284.189 12.9545C282.587 12.9545 281.251 13.3239 280.183 14.0625C279.126 14.7898 278.598 15.7159 278.598 16.8409C278.598 17.8409 278.962 18.6307 279.689 19.2102C280.416 19.7898 281.553 20.2727 283.098 20.6591L286.984 21.6136C289.325 22.1818 291.07 23.0511 292.217 24.2216C293.365 25.3807 293.939 26.875 293.939 28.7045C293.939 30.2045 293.507 31.5455 292.643 32.7273C291.791 33.9091 290.598 34.8409 289.064 35.5227C287.53 36.2045 285.746 36.5455 283.712 36.5455C281.041 36.5455 278.831 35.9659 277.081 34.8068C275.331 33.6477 274.223 31.9545 273.757 29.7273L277.575 28.7727C277.939 30.1818 278.626 31.2386 279.638 31.9432C280.661 32.6477 281.996 33 283.643 33C285.518 33 287.007 32.6023 288.109 31.8068C289.223 31 289.78 30.0341 289.78 28.9091C289.78 28 289.462 27.2386 288.825 26.625C288.189 26 287.212 25.5341 285.893 25.2273L281.53 24.2045C279.132 23.6364 277.371 22.7557 276.246 21.5625C275.132 20.358 274.575 18.8523 274.575 17.0455C274.575 15.5682 274.99 14.2614 275.82 13.125C276.661 11.9886 277.803 11.0966 279.246 10.4489C280.7 9.80114 282.348 9.47727 284.189 9.47727C286.78 9.47727 288.814 10.0455 290.291 11.1818C291.78 12.3182 292.837 13.8182 293.462 15.6818Z" fill="#11224D"/>
</svg>
